<svg width="176" height="176" viewBox="0 0 176 176" fill="none" xmlns="http://www.w3.org/2000/svg">
    <g filter="url(#filter0_d_197_23631)">
        <rect x="24" y="16" width="128" height="128" rx="32" fill="white"/>
    </g>
    <mask id="mask0_197_23631" style="mask-type:alpha" maskUnits="userSpaceOnUse" x="24" y="16" width="128" height="128">
        <rect x="24" y="16" width="128" height="128" rx="32" fill="white"/>
    </mask>
    <g mask="url(#mask0_197_23631)">
        <path d="M24 106C24 106 26 92.1252 28.375 86.1377L44 144H24V106Z" fill="white"/>
        <path fill-rule="evenodd" clip-rule="evenodd" d="M42.9895 87.912C45.8124 90.7185 55.233 90.7349 59.139 85.1548C58.7944 84.6296 57.1532 83.5464 56.4967 83.0376C55.791 82.4796 54.2646 81.2651 53.6082 80.9697C52.9845 81.8067 51.9013 82.6273 50.4899 82.8735C49.6857 83.0212 48.9143 82.9719 48.1593 82.7914C47.9132 82.7422 47.4372 82.6109 47.1746 82.496C46.5181 82.1842 47.0926 82.217 46.2391 82.1185C46.2391 81.8067 46.3212 81.8723 46.0094 81.9544C45.8124 81.4456 45.8781 81.659 45.517 81.3143C45.2708 81.0846 45.4349 81.2487 45.1723 80.9861C45.0082 80.822 45.0246 80.8056 44.8441 80.6414C44.8113 80.6743 44.762 80.7235 44.7456 80.7399C43.7445 81.8887 41.7094 86.1559 41.0201 86.4185C41.0529 86.4513 41.1021 86.4513 41.1021 86.5005C41.1186 86.5498 42.054 87.5673 42.7762 87.6986C42.7105 87.9776 42.6613 87.8956 42.9895 87.912ZM41.135 68.6442C41.5617 69.5961 42.4643 71.0239 43.0224 71.8938C43.3178 72.3861 43.7117 72.8949 44.0071 73.4037C44.204 73.7155 44.3681 73.9453 44.5323 74.2079L44.9918 74.9464C44.8441 73.9125 45.9601 73.7484 46.6823 72.9606L47.0926 72.7965L47.3387 72.6323C50.8181 71.943 51.7208 72.2877 53.7066 74.2407C54.5272 73.9289 57.8261 70.9091 59.1719 70.1705C56.4146 65.8213 48.9143 63.9175 43.6953 66.8224L43.4162 66.9537C42.8418 67.1999 42.5792 67.4953 42.251 67.7415C41.8735 68.0369 41.4796 68.2995 41.135 68.6442Z" fill="#232A38" stroke="#232A38" stroke-width="0.00299998"/>
        <path fill-rule="evenodd" clip-rule="evenodd" d="M41.0195 86.411C41.7088 86.1484 43.7439 81.8813 44.7451 80.7324C44.7615 80.716 44.8107 80.6668 44.8435 80.634C45.0241 80.1416 45.3523 79.6656 45.6313 79.2061C45.779 78.9763 46.4355 77.9096 46.4683 77.7783C46.5832 77.368 45.2867 75.4477 44.9913 74.939L44.5317 74.2004C44.3676 73.9378 44.2035 73.7081 44.0065 73.3962C43.7111 72.8875 43.3172 72.3787 43.0218 71.8863C42.4638 71.0165 41.5611 69.5886 41.1344 68.6367C40.3959 68.9978 38.886 71.0821 38.3115 72.2146C36.5883 75.579 36.5883 79.2882 38.1638 82.7183C38.7383 83.9492 40.1989 85.9843 41.0195 86.411Z" fill="#232A38" stroke="#232A38" stroke-width="0.00299998"/>
        <path fill-rule="evenodd" clip-rule="evenodd" d="M113.741 82.0359V82.2985C113.741 82.4462 113.741 82.6103 113.741 82.758C113.741 84.3172 113.61 88.7977 113.905 89.7003L109.113 89.6675C108.949 88.5515 109.622 90.2584 108.916 89.0439L109.884 88.7977C109.556 88.3217 109.704 88.6336 110.212 87.5175L111.755 84.908C111.886 84.7111 111.886 84.7275 112.018 84.5305C112.444 83.8576 112.986 82.3477 113.741 82.0359ZM107.127 64.9345C107.307 65.5253 108.456 67.3963 108.834 68.0364C109.49 69.1688 109.868 69.9566 110.557 71.1054C111.148 72.0738 111.64 73.0257 112.28 74.1581C112.609 74.7325 112.756 75.1592 113.15 75.7829C113.528 76.3901 113.856 76.702 113.757 77.26C113.56 78.5073 107.176 88.8305 107.111 89.5198L107.127 64.9345ZM107.685 64.5898L106.864 64.6227L106.881 89.7496C107.98 89.9465 113.232 89.9629 114.004 89.766C113.905 85.6301 113.987 81.3138 113.971 77.1615L114.004 65.2627C113.889 64.4257 114.118 64.9837 113.741 64.6063V74.8146L112.658 72.9928C111.854 72.3528 112.806 73.0092 112.018 71.7948C111.148 70.4982 111.23 69.973 110.688 70.3013C110.967 69.5299 110.524 69.5627 110.098 68.7749C109.736 68.1349 109.736 67.8723 109.441 67.265L107.685 64.5898Z" fill="#232A38" stroke="#232A38" stroke-width="0.00299998"/>
        <path fill-rule="evenodd" clip-rule="evenodd" d="M113.742 64.6063L107.686 64.5898L109.442 67.265C109.738 67.8723 109.738 68.1349 110.099 68.7749C110.526 69.5627 110.969 69.5299 110.69 70.3013C111.231 69.973 111.149 70.4982 112.019 71.7948C112.807 73.0092 111.855 72.3528 112.659 72.9928L113.742 74.8146V64.6063Z" fill="#232A38" stroke="#232A38" stroke-width="0.00299998"/>
        <path fill-rule="evenodd" clip-rule="evenodd" d="M113.742 82.0342C112.987 82.346 112.445 83.8559 112.018 84.5288C111.887 84.7258 111.887 84.7094 111.756 84.9063L110.213 87.5158C109.704 88.6318 109.557 88.32 109.885 88.796L108.917 89.0421C109.622 90.2566 108.949 88.5498 109.113 89.6658L113.906 89.6986C113.61 88.796 113.742 84.3155 113.742 82.7563C113.742 82.6086 113.742 82.4445 113.742 82.2968V82.0342Z" fill="#232A38" stroke="#232A38" stroke-width="0.00299998"/>
        <path fill-rule="evenodd" clip-rule="evenodd" d="M107.194 89.6498C107.26 88.9605 113.627 78.6373 113.841 77.3899C113.923 76.8319 113.595 76.5037 113.217 75.8964C112.823 75.2892 112.676 74.8461 112.364 74.288C111.707 73.1556 111.215 72.1873 110.64 71.2354C109.935 70.0866 109.574 69.2824 108.901 68.1499C108.54 67.5263 107.374 65.6389 107.194 65.0645V89.6498Z" fill="#232A38" stroke="#232A38" stroke-width="0.00299998"/>
        <path fill-rule="evenodd" clip-rule="evenodd" d="M65.8174 76.6307C65.9487 76.9754 65.998 76.8769 65.6205 76.8769L62.535 83.2612C61.9934 84.4593 59.6465 88.9234 59.5644 89.7604L66.8678 89.744C67.9018 87.4791 69.1163 85.4112 70.0846 83.0971C70.0682 83.0642 70.0682 83.015 70.0517 83.015C70.0517 83.015 70.0353 82.9494 70.0189 82.9494C69.6743 82.5555 70.38 82.7852 69.904 82.8837L69.5102 83.1299L69.6579 82.1452C69.3789 82.5062 69.4937 82.3093 69.2147 82.4406C69.1327 81.7349 67.0319 78.157 66.4247 77.2708L66.2441 76.9425C66.0144 76.565 66.1949 76.483 65.8174 76.6307Z" fill="#232A38" stroke="#232A38" stroke-width="0.00299998"/>
        <path fill-rule="evenodd" clip-rule="evenodd" d="M71.4808 83.5271C71.5137 83.9703 73.9426 89.6488 74.5335 89.7473H81.5579C81.5579 89.1565 79.1289 84.2329 78.6857 83.3466C77.6682 81.2951 76.6342 79.063 75.6823 77.0115C75.6003 77.0279 75.6003 77.2577 75.19 76.7654C75.0258 77.1757 75.2556 77.3234 74.4022 78.3081L72.7282 81.0817C72.5312 81.5249 72.5804 81.7546 72.3179 82.1485C72.0717 82.526 71.6778 82.5916 71.4808 83.5271ZM75.5346 76.6997L75.551 76.7654L75.5346 76.6997Z" fill="#232A38" stroke="#232A38" stroke-width="0.00299998"/>
        <path fill-rule="evenodd" clip-rule="evenodd" d="M70.0845 83.0994L70.6426 82.1475C70.9872 82.6891 71.0364 83.1322 71.4796 83.5261C71.6765 82.5906 72.0704 82.525 72.3166 82.1475C72.5792 81.7536 72.5299 81.5238 72.7269 81.0807L74.4009 78.307C75.2544 77.3223 75.0246 77.1746 75.1887 76.7643C75.599 77.2567 75.599 77.0269 75.6811 77.0105L75.5498 76.7643L75.5334 76.6987L74.3845 74.3025C73.8429 74.8277 72.891 77.3716 72.4479 78.1593C71.9719 78.9964 71.0857 81.4418 70.5769 81.8849C69.3788 79.2589 68.1479 76.7479 67.0155 74.1548C66.5888 74.5815 65.8502 75.9601 65.8174 76.633C65.522 76.5181 65.6369 76.5017 65.6205 76.8792C65.9979 76.8792 65.9487 76.9777 65.8174 76.633C66.1949 76.4853 66.0143 76.5674 66.2441 76.9448L66.4246 77.2731C67.0319 78.1593 69.1326 81.7372 69.2147 82.4429C69.4937 82.3116 69.3788 82.5085 69.6578 82.1475L69.5101 83.1322L69.904 82.886C70.38 82.7875 69.6742 82.5578 70.0189 82.9517C70.0353 82.9517 70.0517 83.0173 70.0517 83.0173C70.0681 83.0173 70.0681 83.0666 70.0845 83.0994Z" fill="#232A38" stroke="#232A38" stroke-width="0.00299998"/>
        <path fill-rule="evenodd" clip-rule="evenodd" d="M67.0162 74.155C68.1487 76.7481 69.3796 79.2591 70.5777 81.8851C71.0864 81.4419 71.9727 78.9965 72.4486 78.1595C72.8918 77.3717 73.8437 74.8279 74.3853 74.3027L70.6597 66.2607C70.0853 67.3275 67.0655 73.4164 67.0162 74.155Z" fill="#232A38" stroke="#232A38" stroke-width="0.00299998"/>
        <path fill-rule="evenodd" clip-rule="evenodd" d="M123.262 76.6307C123.393 76.9754 123.442 76.8769 123.065 76.8769L119.979 83.2612C119.438 84.4593 117.091 88.9234 117.009 89.7604L124.312 89.744C125.346 87.4791 126.56 85.4112 127.529 83.0971C127.512 83.0642 127.512 83.015 127.496 83.015C127.496 83.015 127.479 82.9494 127.463 82.9494C127.118 82.5555 127.824 82.7852 127.348 82.8837L126.954 83.1299L127.102 82.1452C126.823 82.5062 126.938 82.3093 126.659 82.4406C126.577 81.7349 124.476 78.157 123.869 77.2708L123.688 76.9425C123.458 76.565 123.639 76.483 123.262 76.6307Z" fill="#232A38" stroke="#232A38" stroke-width="0.00299998"/>
        <path fill-rule="evenodd" clip-rule="evenodd" d="M128.923 83.5271C128.956 83.9703 131.385 89.6488 131.976 89.7473H139C139 89.1565 136.571 84.2329 136.128 83.3466C135.11 81.2951 134.076 79.063 133.125 77.0115C133.042 77.0279 133.042 77.2577 132.632 76.7654C132.468 77.1757 132.698 77.3234 131.861 78.3081L130.17 81.0817C129.973 81.5249 130.023 81.7546 129.76 82.1485C129.514 82.526 129.12 82.5916 128.923 83.5271ZM132.977 76.6997L132.993 76.7654L132.977 76.6997Z" fill="#232A38" stroke="#232A38" stroke-width="0.00299998"/>
        <path fill-rule="evenodd" clip-rule="evenodd" d="M127.528 83.0994L128.086 82.1475C128.431 82.6891 128.48 83.1322 128.923 83.5261C129.12 82.5906 129.514 82.525 129.76 82.1475C130.023 81.7536 129.974 81.5238 130.171 81.0807L131.861 78.307C132.698 77.3223 132.468 77.1746 132.633 76.7643C133.043 77.2567 133.043 77.0269 133.125 77.0105L132.994 76.7643L132.977 76.6987L131.828 74.3025C131.287 74.8277 130.335 77.3716 129.892 78.1593C129.416 78.9964 128.53 81.4418 128.021 81.8849C126.823 79.2589 125.592 76.7479 124.459 74.1548C124.033 74.5815 123.294 75.9601 123.261 76.633C122.966 76.5181 123.081 76.5017 123.064 76.8792C123.442 76.8792 123.393 76.9777 123.261 76.633C123.639 76.4853 123.458 76.5674 123.688 76.9448L123.869 77.2731C124.476 78.1593 126.577 81.7372 126.659 82.4429C126.938 82.3116 126.823 82.5085 127.102 82.1475L126.954 83.1322L127.348 82.886C127.824 82.7875 127.118 82.5578 127.463 82.9517C127.479 82.9517 127.496 83.0173 127.496 83.0173C127.512 83.0173 127.512 83.0666 127.528 83.0994Z" fill="#232A38" stroke="#232A38" stroke-width="0.00299998"/>
        <path fill-rule="evenodd" clip-rule="evenodd" d="M124.458 74.155C125.591 76.7481 126.822 79.2591 128.02 81.8851C128.529 81.4419 129.415 78.9965 129.891 78.1595C130.334 77.3717 131.286 74.8279 131.828 74.3027L128.102 66.2607C127.528 67.3275 124.508 73.4164 124.458 74.155Z" fill="#232A38" stroke="#232A38" stroke-width="0.00299998"/>
        <path d="M96.6735 81.5998L96.4109 81.3372C93.0957 81.2059 90.7323 80.7136 89.3373 79.8929C87.9423 79.0559 87.2365 77.9563 87.2365 76.5449V76.4464C87.2365 75.2483 87.6633 74.3292 88.5003 73.6728C89.3373 73.0163 90.519 72.7044 92.0617 72.7044C93.5224 72.7044 94.901 72.9999 96.1647 73.5907C97.4449 74.1815 98.6922 75.0842 99.9067 76.3151L104.732 71.0304C103.189 69.3728 101.384 68.027 99.3158 66.9766C97.2315 65.9427 94.7697 65.4175 91.8976 65.4175C90.0102 65.4175 88.3033 65.6637 86.7606 66.1232C85.2179 66.5992 83.8885 67.3049 82.7725 68.2239C81.6564 69.143 80.803 70.2755 80.1958 71.6213C79.5885 72.967 79.2931 74.5098 79.2931 76.2659V76.3643C79.2931 78.0384 79.5557 79.4662 80.0809 80.6643C80.6225 81.846 81.361 82.8635 82.2801 83.7006C83.1992 84.5376 84.2824 85.2105 85.5297 85.7192C86.777 86.2116 88.1228 86.6055 89.5506 86.8845L90.1251 90.0849H95.459L96.6735 81.5998Z" fill="#232A38" stroke="#232A38" stroke-width="0.00299998"/>
        <path d="M97.2483 94.1748H88.8124V102.545H97.2483V94.1748Z" fill="#74BDCB"/>
        <path d="M114.02 57.0171H106.749V62.7613H114.02V57.0171Z" fill="#74BDCB" stroke="#232A38" stroke-width="0.00694483"/>
    </g>
    <defs>
        <filter id="filter0_d_197_23631" x="0" y="0" width="176" height="176" filterUnits="userSpaceOnUse" color-interpolation-filters="sRGB">
            <feFlood flood-opacity="0" result="BackgroundImageFix"/>
            <feColorMatrix in="SourceAlpha" type="matrix" values="0 0 0 0 0 0 0 0 0 0 0 0 0 0 0 0 0 0 127 0" result="hardAlpha"/>
            <feOffset dy="8"/>
            <feGaussianBlur stdDeviation="12"/>
            <feColorMatrix type="matrix" values="0 0 0 0 0 0 0 0 0 0 0 0 0 0 0 0 0 0 0.04 0"/>
            <feBlend mode="normal" in2="BackgroundImageFix" result="effect1_dropShadow_197_23631"/>
            <feBlend mode="normal" in="SourceGraphic" in2="effect1_dropShadow_197_23631" result="shape"/>
        </filter>
    </defs>
</svg>
